<svg width="314" height="196" viewBox="0 0 314 196" fill="none" xmlns="http://www.w3.org/2000/svg">
<g clip-path="url(#clip0_2327_7225)">
<rect width="313.14" height="195.02" fill="white"/>
<rect width="313.136" height="195.023" rx="14" fill="white"/>
<path d="M209.909 27.6841C209.855 27.0852 209.612 26.6196 209.182 26.2875C208.757 25.9499 208.15 25.7811 207.361 25.7811C206.838 25.7811 206.402 25.8491 206.054 25.9853C205.705 26.1214 205.444 26.3092 205.27 26.5488C205.096 26.783 205.006 27.0525 205 27.3574C204.989 27.6079 205.038 27.8284 205.147 28.019C205.262 28.2096 205.425 28.3784 205.637 28.5254C205.855 28.667 206.117 28.7922 206.422 28.9011C206.726 29.01 207.069 29.1053 207.451 29.187L208.888 29.5137C209.716 29.6934 210.445 29.9329 211.077 30.2324C211.714 30.5319 212.248 30.8886 212.678 31.3024C213.114 31.7162 213.443 32.1926 213.666 32.7317C213.889 33.2708 214.004 33.8752 214.009 34.5449C214.004 35.6013 213.737 36.5079 213.209 37.2647C212.681 38.0216 211.921 38.6015 210.93 39.0044C209.944 39.4074 208.755 39.6088 207.361 39.6088C205.961 39.6088 204.742 39.3992 203.702 38.9799C202.662 38.5607 201.853 37.9236 201.276 37.0687C200.699 36.2138 200.402 35.133 200.386 33.8262H204.257C204.29 34.3652 204.434 34.8145 204.69 35.1738C204.946 35.5332 205.297 35.8055 205.744 35.9906C206.196 36.1757 206.718 36.2683 207.312 36.2683C207.856 36.2683 208.319 36.1948 208.7 36.0478C209.087 35.9007 209.384 35.6966 209.591 35.4352C209.797 35.1738 209.904 34.8743 209.909 34.5368C209.904 34.2209 209.806 33.9514 209.615 33.7282C209.424 33.4995 209.13 33.3034 208.733 33.1401C208.341 32.9713 207.84 32.8161 207.23 32.6745L205.482 32.2662C204.034 31.934 202.893 31.3977 202.06 30.6571C201.227 29.9112 200.813 28.9038 200.819 27.6351C200.813 26.6006 201.091 25.694 201.652 24.9153C202.212 24.1367 202.988 23.5295 203.979 23.0939C204.97 22.6583 206.1 22.4405 207.369 22.4405C208.665 22.4405 209.789 22.661 210.742 23.1021C211.701 23.5377 212.444 24.1503 212.972 24.9398C213.5 25.7293 213.77 26.6441 213.781 27.6841H209.909ZM216.051 39.3965V22.6692H220.094V29.383H226.685V22.6692H230.72V39.3965H226.685V32.6745H220.094V39.3965H216.051ZM233.256 39.3965V22.6692H240.166C241.418 22.6692 242.499 22.8952 243.409 23.3471C244.323 23.7936 245.028 24.4361 245.524 25.2747C246.019 26.1078 246.267 27.0961 246.267 28.2395C246.267 29.3993 246.014 30.3849 245.508 31.1962C245.001 32.0021 244.282 32.6174 243.351 33.0421C242.42 33.4614 241.318 33.671 240.044 33.671H235.674V30.4856H239.292C239.902 30.4856 240.411 30.4067 240.819 30.2488C241.233 30.0854 241.546 29.8404 241.759 29.5137C241.971 29.1815 242.077 28.7568 242.077 28.2395C242.077 27.7222 241.971 27.2948 241.759 26.9572C241.546 26.6142 241.233 26.3583 240.819 26.1895C240.406 26.0152 239.896 25.9281 239.292 25.9281H237.299V39.3965H233.256ZM242.673 31.7516L246.839 39.3965H242.428L238.345 31.7516H242.673ZM264.273 31.0328C264.273 32.8733 263.919 34.4333 263.211 35.7129C262.503 36.9925 261.545 37.9644 260.336 38.6287C259.133 39.293 257.782 39.6252 256.285 39.6252C254.782 39.6252 253.429 39.2903 252.225 38.6206C251.022 37.9508 250.067 36.9789 249.359 35.7047C248.656 34.4251 248.305 32.8678 248.305 31.0328C248.305 29.1924 248.656 27.6324 249.359 26.3528C250.067 25.0732 251.022 24.1013 252.225 23.437C253.429 22.7727 254.782 22.4405 256.285 22.4405C257.782 22.4405 259.133 22.7727 260.336 23.437C261.545 24.1013 262.503 25.0732 263.211 26.3528C263.919 27.6324 264.273 29.1924 264.273 31.0328ZM260.14 31.0328C260.14 29.9438 259.985 29.0236 259.674 28.2722C259.369 27.5208 258.928 26.9518 258.351 26.5652C257.779 26.1786 257.091 25.9853 256.285 25.9853C255.484 25.9853 254.796 26.1786 254.218 26.5652C253.641 26.9518 253.197 27.5208 252.887 28.2722C252.582 29.0236 252.43 29.9438 252.43 31.0328C252.43 32.1219 252.582 33.0421 252.887 33.7935C253.197 34.5449 253.641 35.1139 254.218 35.5005C254.796 35.8871 255.484 36.0804 256.285 36.0804C257.091 36.0804 257.779 35.8871 258.351 35.5005C258.928 35.1139 259.369 34.5449 259.674 33.7935C259.985 33.0421 260.14 32.1219 260.14 31.0328ZM276.753 22.6692H280.788V33.4586C280.788 34.7056 280.491 35.7918 279.897 36.7175C279.304 37.6377 278.476 38.351 277.414 38.8574C276.353 39.3584 275.119 39.6088 273.714 39.6088C272.293 39.6088 271.052 39.3584 269.99 38.8574C268.928 38.351 268.103 37.6377 267.515 36.7175C266.927 35.7918 266.633 34.7056 266.633 33.4586V22.6692H270.676V33.1074C270.676 33.6846 270.801 34.1992 271.052 34.6511C271.308 35.103 271.664 35.457 272.122 35.7129C272.579 35.9688 273.11 36.0968 273.714 36.0968C274.319 36.0968 274.847 35.9688 275.299 35.7129C275.756 35.457 276.113 35.103 276.369 34.6511C276.625 34.1992 276.753 33.6846 276.753 33.1074V22.6692ZM282.774 25.9526V22.6692H296.913V25.9526H291.84V39.3965H287.855V25.9526H282.774Z" fill="black"/>
<g clip-path="url(#clip1_2327_7225)">
<path d="M250.52 -114H62.4057C57.2112 -114 53 -109.789 53 -104.594V83.5201C53 88.7146 57.2112 92.9258 62.4057 92.9258H250.52C255.715 92.9258 259.926 88.7146 259.926 83.5201V-104.594C259.926 -109.789 255.715 -114 250.52 -114ZM241.114 74.1144H71.8114V-95.1886H241.114V74.1144Z" fill="black" fill-opacity="0.06"/>
<path d="M100.027 55.3012H212.895C218.09 55.3012 222.301 51.0899 222.301 45.8955V-66.9732C222.301 -72.1677 218.09 -76.3789 212.895 -76.3789H156.461C151.267 -76.3789 147.055 -72.1677 147.055 -66.9732V-37.1382C136.108 -33.2556 128.244 -22.8008 128.244 -10.5389C128.244 5.02007 140.902 17.6783 156.461 17.6783C172.021 17.6783 184.678 5.02007 184.678 -10.5389C184.678 -22.8008 176.814 -33.2549 165.867 -37.1382V-57.5675H203.49V36.4897H109.432V-57.5675H112.568C117.762 -57.5675 121.973 -61.7787 121.973 -66.9732C121.973 -72.1677 117.762 -76.3789 112.568 -76.3789H100.027C94.8323 -76.3789 90.6211 -72.1677 90.6211 -66.9732V45.8955C90.6211 51.0899 94.8323 55.3012 100.027 55.3012ZM156.461 -1.13315C151.275 -1.13315 147.055 -5.35256 147.055 -10.5389C147.055 -15.7252 151.275 -19.9446 156.461 -19.9446C161.647 -19.9446 165.867 -15.7252 165.867 -10.5389C165.867 -5.35256 161.647 -1.13315 156.461 -1.13315Z" fill="black" fill-opacity="0.06"/>
</g>
</g>
<defs>
<clipPath id="clip0_2327_7225">
<rect width="313.14" height="195.02" fill="white"/>
</clipPath>
<clipPath id="clip1_2327_7225">
<rect width="214" height="117" fill="white" transform="translate(50)"/>
</clipPath>
</defs>
</svg>
