<svg width="314" height="196" viewBox="0 0 314 196" fill="none" xmlns="http://www.w3.org/2000/svg">
<g clip-path="url(#clip0_2339_7550)">
<rect width="313.14" height="195.02" fill="white"/>
<g filter="url(#filter0_d_2339_7550)">
<rect y="-1" width="314" height="196" fill="#171717"/>
</g>
<path d="M221.515 195L48 50.791V44L237 195H221.515Z" fill="white"/>
<path d="M257.235 195L103 50.791V44L271 195H257.235Z" fill="white"/>
<path d="M292.021 195L169 62.2513V56L303 195H292.021Z" fill="white"/>
<path d="M208.308 26.2876C208.253 25.6887 208.011 25.2231 207.581 24.891C207.156 24.5534 206.549 24.3846 205.759 24.3846C205.237 24.3846 204.801 24.4527 204.452 24.5888C204.104 24.7249 203.843 24.9128 203.668 25.1523C203.494 25.3865 203.404 25.656 203.399 25.9609C203.388 26.2114 203.437 26.4319 203.546 26.6225C203.66 26.8131 203.824 26.9819 204.036 27.1289C204.254 27.2705 204.515 27.3957 204.82 27.5046C205.125 27.6135 205.468 27.7088 205.849 27.7905L207.287 28.1172C208.114 28.2969 208.844 28.5365 209.475 28.8359C210.113 29.1354 210.646 29.4921 211.076 29.9059C211.512 30.3197 211.841 30.7962 212.065 31.3352C212.288 31.8743 212.402 32.4787 212.408 33.1484C212.402 34.2048 212.135 35.1114 211.607 35.8683C211.079 36.6251 210.319 37.205 209.328 37.608C208.343 38.0109 207.153 38.2124 205.759 38.2124C204.36 38.2124 203.14 38.0027 202.1 37.5835C201.06 37.1642 200.252 36.5271 199.674 35.6722C199.097 34.8174 198.8 33.7365 198.784 32.4297H202.656C202.688 32.9688 202.833 33.418 203.088 33.7773C203.344 34.1367 203.696 34.409 204.142 34.5941C204.594 34.7792 205.117 34.8718 205.71 34.8718C206.255 34.8718 206.718 34.7983 207.099 34.6513C207.485 34.5043 207.782 34.3001 207.989 34.0387C208.196 33.7773 208.302 33.4779 208.308 33.1403C208.302 32.8245 208.204 32.5549 208.013 32.3317C207.823 32.103 207.529 31.907 207.131 31.7436C206.739 31.5748 206.238 31.4196 205.629 31.2781L203.881 30.8697C202.432 30.5375 201.292 30.0012 200.458 29.2607C199.625 28.5147 199.212 27.5073 199.217 26.2386C199.212 25.2041 199.489 24.2975 200.05 23.5188C200.611 22.7402 201.387 22.133 202.378 21.6974C203.369 21.2618 204.499 21.044 205.767 21.044C207.063 21.044 208.188 21.2646 209.141 21.7056C210.099 22.1412 210.842 22.7538 211.37 23.5433C211.899 24.3329 212.168 25.2476 212.179 26.2876H208.308ZM214.45 38V21.2727H218.493V27.9865H225.084V21.2727H229.119V38H225.084V31.2781H218.493V38H214.45ZM231.655 38V21.2727H238.564C239.817 21.2727 240.898 21.4987 241.807 21.9506C242.722 22.3971 243.427 23.0397 243.922 23.8782C244.418 24.7113 244.666 25.6996 244.666 26.843C244.666 28.0028 244.412 28.9884 243.906 29.7997C243.4 30.6056 242.681 31.2209 241.75 31.6456C240.819 32.0649 239.716 32.2745 238.442 32.2745H234.072V29.0891H237.691C238.3 29.0891 238.809 29.0102 239.218 28.8523C239.632 28.6889 239.945 28.4439 240.157 28.1172C240.369 27.785 240.476 27.3603 240.476 26.843C240.476 26.3258 240.369 25.8983 240.157 25.5607C239.945 25.2177 239.632 24.9618 239.218 24.793C238.804 24.6187 238.295 24.5316 237.691 24.5316H235.698V38H231.655ZM241.072 30.3551L245.237 38H240.827L236.743 30.3551H241.072ZM262.671 29.6364C262.671 31.4768 262.317 33.0368 261.609 34.3164C260.902 35.596 259.943 36.5679 258.734 37.2322C257.531 37.8965 256.181 38.2287 254.683 38.2287C253.18 38.2287 251.827 37.8938 250.624 37.2241C249.421 36.5543 248.465 35.5824 247.757 34.3082C247.055 33.0286 246.703 31.4714 246.703 29.6364C246.703 27.7959 247.055 26.2359 247.757 24.9563C248.465 23.6767 249.421 22.7048 250.624 22.0405C251.827 21.3762 253.18 21.044 254.683 21.044C256.181 21.044 257.531 21.3762 258.734 22.0405C259.943 22.7048 260.902 23.6767 261.609 24.9563C262.317 26.2359 262.671 27.7959 262.671 29.6364ZM258.538 29.6364C258.538 28.5473 258.383 27.6271 258.073 26.8757C257.768 26.1243 257.327 25.5553 256.75 25.1687C256.178 24.7821 255.489 24.5888 254.683 24.5888C253.883 24.5888 253.194 24.7821 252.617 25.1687C252.04 25.5553 251.596 26.1243 251.286 26.8757C250.981 27.6271 250.828 28.5473 250.828 29.6364C250.828 30.7254 250.981 31.6456 251.286 32.397C251.596 33.1484 252.04 33.7174 252.617 34.104C253.194 34.4906 253.883 34.6839 254.683 34.6839C255.489 34.6839 256.178 34.4906 256.75 34.104C257.327 33.7174 257.768 33.1484 258.073 32.397C258.383 31.6456 258.538 30.7254 258.538 29.6364ZM275.151 21.2727H279.186V32.0621C279.186 33.3091 278.889 34.3954 278.296 35.321C277.702 36.2412 276.875 36.9545 275.813 37.4609C274.751 37.9619 273.518 38.2124 272.113 38.2124C270.692 38.2124 269.45 37.9619 268.388 37.4609C267.327 36.9545 266.502 36.2412 265.914 35.321C265.326 34.3954 265.032 33.3091 265.032 32.0621V21.2727H269.075V31.7109C269.075 32.2881 269.2 32.8027 269.45 33.2546C269.706 33.7066 270.063 34.0605 270.52 34.3164C270.978 34.5723 271.509 34.7003 272.113 34.7003C272.717 34.7003 273.246 34.5723 273.697 34.3164C274.155 34.0605 274.511 33.7066 274.767 33.2546C275.023 32.8027 275.151 32.2881 275.151 31.7109V21.2727ZM281.173 24.5561V21.2727H295.311V24.5561H290.239V38H286.253V24.5561H281.173Z" fill="white"/>
</g>
<defs>
<filter id="filter0_d_2339_7550" x="-17" y="-14" width="348" height="230" filterUnits="userSpaceOnUse" color-interpolation-filters="sRGB">
<feFlood flood-opacity="0" result="BackgroundImageFix"/>
<feColorMatrix in="SourceAlpha" type="matrix" values="0 0 0 0 0 0 0 0 0 0 0 0 0 0 0 0 0 0 127 0" result="hardAlpha"/>
<feOffset dy="4"/>
<feGaussianBlur stdDeviation="8.5"/>
<feComposite in2="hardAlpha" operator="out"/>
<feColorMatrix type="matrix" values="0 0 0 0 0.1045 0 0 0 0 0.10632 0 0 0 0 0.15 0 0 0 0.26 0"/>
<feBlend mode="normal" in2="BackgroundImageFix" result="effect1_dropShadow_2339_7550"/>
<feBlend mode="normal" in="SourceGraphic" in2="effect1_dropShadow_2339_7550" result="shape"/>
</filter>
<clipPath id="clip0_2339_7550">
<rect width="313.14" height="195.02" fill="white"/>
</clipPath>
</defs>
</svg>
