<svg width="313" height="195" viewBox="0 0 313 195" fill="none" xmlns="http://www.w3.org/2000/svg">
<rect width="313" height="195" fill="#131127"/>
<path d="M101.884 106H97.5391L103.183 89.2727H108.565L114.209 106H109.864L105.935 93.4872H105.805L101.884 106ZM101.304 99.4169H110.387V102.488H101.304V99.4169ZM119.806 106.18C118.88 106.18 118.039 105.94 117.282 105.461C116.525 104.982 115.921 104.263 115.469 103.305C115.017 102.346 114.791 101.157 114.791 99.7354C114.791 98.2598 115.025 97.0456 115.494 96.0927C115.962 95.1398 116.574 94.4347 117.331 93.9773C118.094 93.5199 118.913 93.2912 119.79 93.2912C120.449 93.2912 121.012 93.4055 121.48 93.6342C121.949 93.8575 122.335 94.1461 122.64 94.5C122.945 94.8539 123.177 95.2215 123.334 95.6026H123.416V89.2727H127.41V106H123.457V103.966H123.334C123.166 104.353 122.926 104.715 122.616 105.053C122.305 105.39 121.916 105.662 121.448 105.869C120.985 106.076 120.438 106.18 119.806 106.18ZM121.195 103.068C121.679 103.068 122.093 102.932 122.436 102.659C122.779 102.382 123.043 101.992 123.228 101.491C123.413 100.991 123.506 100.402 123.506 99.7273C123.506 99.0412 123.413 98.4504 123.228 97.9549C123.049 97.4594 122.784 97.0782 122.436 96.8114C122.093 96.5446 121.679 96.4112 121.195 96.4112C120.699 96.4112 120.28 96.5473 119.937 96.8196C119.594 97.0919 119.332 97.4757 119.153 97.9712C118.978 98.4667 118.891 99.0521 118.891 99.7273C118.891 100.402 118.981 100.991 119.161 101.491C119.34 101.992 119.599 102.382 119.937 102.659C120.28 102.932 120.699 103.068 121.195 103.068ZM134.518 106.18C133.592 106.18 132.751 105.94 131.994 105.461C131.237 104.982 130.633 104.263 130.181 103.305C129.729 102.346 129.503 101.157 129.503 99.7354C129.503 98.2598 129.737 97.0456 130.205 96.0927C130.674 95.1398 131.286 94.4347 132.043 93.9773C132.805 93.5199 133.625 93.2912 134.502 93.2912C135.16 93.2912 135.724 93.4055 136.192 93.6342C136.661 93.8575 137.047 94.1461 137.352 94.5C137.657 94.8539 137.888 95.2215 138.046 95.6026H138.128V89.2727H142.122V106H138.169V103.966H138.046C137.878 104.353 137.638 104.715 137.328 105.053C137.017 105.39 136.628 105.662 136.16 105.869C135.697 106.076 135.15 106.18 134.518 106.18ZM135.906 103.068C136.391 103.068 136.805 102.932 137.148 102.659C137.491 102.382 137.755 101.992 137.94 101.491C138.125 100.991 138.218 100.402 138.218 99.7273C138.218 99.0412 138.125 98.4504 137.94 97.9549C137.76 97.4594 137.496 97.0782 137.148 96.8114C136.805 96.5446 136.391 96.4112 135.906 96.4112C135.411 96.4112 134.992 96.5473 134.649 96.8196C134.306 97.0919 134.044 97.4757 133.865 97.9712C133.69 98.4667 133.603 99.0521 133.603 99.7273C133.603 100.402 133.693 100.991 133.873 101.491C134.052 101.992 134.311 102.382 134.649 102.659C134.992 102.932 135.411 103.068 135.906 103.068ZM163.825 89.2727V106H160.395L153.738 96.3459H153.632V106H149.589V89.2727H153.069L159.652 98.9105H159.791V89.2727H163.825ZM172.232 106.237C170.92 106.237 169.787 105.978 168.834 105.461C167.887 104.938 167.157 104.195 166.645 103.231C166.139 102.262 165.886 101.11 165.886 99.7763C165.886 98.4804 166.142 97.3478 166.653 96.3786C167.165 95.4039 167.887 94.647 168.818 94.108C169.749 93.5634 170.846 93.2912 172.109 93.2912C173.002 93.2912 173.819 93.43 174.56 93.7077C175.3 93.9854 175.94 94.3965 176.479 94.9411C177.018 95.4856 177.437 96.158 177.737 96.9585C178.036 97.7534 178.186 98.6655 178.186 99.6946V100.691H167.282V98.3714H174.47C174.464 97.9467 174.364 97.5683 174.168 97.2362C173.972 96.904 173.702 96.6454 173.359 96.4602C173.021 96.2696 172.632 96.1744 172.191 96.1744C171.745 96.1744 171.344 96.2751 170.99 96.4766C170.636 96.6726 170.356 96.9421 170.149 97.2852C169.942 97.6228 169.833 98.0066 169.822 98.4368V100.797C169.822 101.309 169.923 101.758 170.125 102.145C170.326 102.526 170.612 102.823 170.982 103.035C171.353 103.248 171.794 103.354 172.305 103.354C172.659 103.354 172.981 103.305 173.269 103.207C173.558 103.109 173.806 102.964 174.012 102.774C174.219 102.583 174.375 102.349 174.478 102.071L178.145 102.178C177.993 103 177.658 103.716 177.141 104.326C176.629 104.93 175.956 105.401 175.123 105.739C174.29 106.071 173.326 106.237 172.232 106.237ZM182.435 106L179.168 93.4545H183.179L184.869 101.491H184.975L186.789 93.4545H190.701L192.563 101.434H192.669L194.311 93.4545H198.321L195.046 106H190.774L188.814 98.69H188.675L186.715 106H182.435ZM220.049 95.3331H215.965C215.911 94.9138 215.799 94.5354 215.631 94.1978C215.462 93.8602 215.238 93.5716 214.961 93.332C214.683 93.0924 214.354 92.91 213.972 92.7848C213.597 92.6541 213.18 92.5888 212.723 92.5888C211.912 92.5888 211.212 92.7875 210.624 93.185C210.041 93.5825 209.592 94.157 209.276 94.9084C208.966 95.6598 208.811 96.5691 208.811 97.6364C208.811 98.7472 208.968 99.6783 209.284 100.43C209.606 101.176 210.055 101.739 210.632 102.12C211.215 102.496 211.903 102.684 212.698 102.684C213.145 102.684 213.55 102.627 213.915 102.512C214.286 102.398 214.61 102.232 214.887 102.014C215.17 101.791 215.402 101.521 215.581 101.206C215.767 100.884 215.895 100.522 215.965 100.119L220.049 100.144C219.978 100.884 219.763 101.614 219.404 102.333C219.05 103.051 218.563 103.708 217.942 104.301C217.321 104.889 216.564 105.357 215.671 105.706C214.784 106.054 213.766 106.229 212.617 106.229C211.103 106.229 209.747 105.897 208.549 105.232C207.357 104.562 206.415 103.588 205.723 102.308C205.032 101.029 204.686 99.4714 204.686 97.6364C204.686 95.7959 205.037 94.2359 205.74 92.9563C206.442 91.6767 207.392 90.7048 208.59 90.0405C209.788 89.3762 211.13 89.044 212.617 89.044C213.629 89.044 214.566 89.1856 215.426 89.4688C216.287 89.7464 217.044 90.1548 217.697 90.6939C218.35 91.2275 218.881 91.8836 219.29 92.6623C219.698 93.4409 219.951 94.3312 220.049 95.3331ZM225.899 106.212C225.099 106.212 224.388 106.079 223.767 105.812C223.152 105.54 222.665 105.132 222.305 104.587C221.952 104.037 221.775 103.348 221.775 102.521C221.775 101.824 221.897 101.236 222.142 100.756C222.387 100.277 222.725 99.8879 223.155 99.5884C223.585 99.2889 224.081 99.063 224.641 98.9105C225.202 98.7526 225.801 98.6464 226.438 98.592C227.152 98.5266 227.726 98.4586 228.162 98.3878C228.597 98.3116 228.913 98.2054 229.109 98.0692C229.311 97.9277 229.411 97.7289 229.411 97.473V97.4322C229.411 97.0129 229.267 96.6889 228.978 96.4602C228.69 96.2315 228.301 96.1172 227.81 96.1172C227.282 96.1172 226.858 96.2315 226.536 96.4602C226.215 96.6889 226.011 97.0047 225.924 97.4077L222.24 97.277C222.349 96.5147 222.629 95.834 223.081 95.2351C223.539 94.6307 224.165 94.157 224.96 93.8139C225.76 93.4654 226.721 93.2912 227.843 93.2912C228.644 93.2912 229.381 93.3865 230.057 93.5771C230.732 93.7622 231.32 94.0344 231.821 94.3938C232.322 94.7478 232.708 95.1834 232.981 95.7006C233.258 96.2179 233.397 96.8087 233.397 97.473V106H229.64V104.252H229.542C229.319 104.677 229.033 105.036 228.684 105.33C228.341 105.624 227.936 105.845 227.467 105.992C227.005 106.139 226.482 106.212 225.899 106.212ZM227.133 103.599C227.563 103.599 227.949 103.512 228.292 103.337C228.641 103.163 228.919 102.924 229.125 102.619C229.332 102.308 229.436 101.949 229.436 101.54V100.348C229.321 100.408 229.183 100.462 229.019 100.511C228.861 100.56 228.687 100.607 228.497 100.65C228.306 100.694 228.11 100.732 227.908 100.765C227.707 100.797 227.514 100.827 227.329 100.854C226.953 100.914 226.632 101.007 226.365 101.132C226.103 101.257 225.902 101.421 225.76 101.622C225.624 101.818 225.556 102.052 225.556 102.325C225.556 102.738 225.703 103.054 225.997 103.272C226.297 103.49 226.675 103.599 227.133 103.599ZM235.839 106V93.4545H239.719V95.7415H239.85C240.078 94.9138 240.451 94.2985 240.968 93.8956C241.486 93.4872 242.087 93.283 242.774 93.283C242.959 93.283 243.149 93.2966 243.345 93.3239C243.541 93.3456 243.724 93.381 243.892 93.43V96.9013C243.702 96.8359 243.451 96.7842 243.141 96.7461C242.836 96.708 242.564 96.6889 242.324 96.6889C241.851 96.6889 241.423 96.7951 241.042 97.0075C240.666 97.2144 240.37 97.5057 240.152 97.8814C239.939 98.2517 239.833 98.6873 239.833 99.1882V106H235.839ZM249.451 106.18C248.525 106.18 247.684 105.94 246.927 105.461C246.17 104.982 245.565 104.263 245.114 103.305C244.662 102.346 244.436 101.157 244.436 99.7354C244.436 98.2598 244.67 97.0456 245.138 96.0927C245.606 95.1398 246.219 94.4347 246.976 93.9773C247.738 93.5199 248.558 93.2912 249.434 93.2912C250.093 93.2912 250.657 93.4055 251.125 93.6342C251.593 93.8575 251.98 94.1461 252.285 94.5C252.59 94.8539 252.821 95.2215 252.979 95.6026H253.061V89.2727H257.055V106H253.101V103.966H252.979C252.81 104.353 252.571 104.715 252.26 105.053C251.95 105.39 251.561 105.662 251.092 105.869C250.629 106.076 250.082 106.18 249.451 106.18ZM250.839 103.068C251.324 103.068 251.737 102.932 252.081 102.659C252.424 102.382 252.688 101.992 252.873 101.491C253.058 100.991 253.15 100.402 253.15 99.7273C253.15 99.0412 253.058 98.4504 252.873 97.9549C252.693 97.4594 252.429 97.0782 252.081 96.8114C251.737 96.5446 251.324 96.4112 250.839 96.4112C250.344 96.4112 249.924 96.5473 249.581 96.8196C249.238 97.0919 248.977 97.4757 248.797 97.9712C248.623 98.4667 248.536 99.0521 248.536 99.7273C248.536 100.402 248.626 100.991 248.805 101.491C248.985 101.992 249.244 102.382 249.581 102.659C249.924 102.932 250.344 103.068 250.839 103.068Z" fill="white"/>
<rect x="49" y="82" width="31" height="31" rx="15.5" fill="white"/>
<path d="M70.0714 98.4286H65.4286V103.071C65.4286 103.582 65.0107 104 64.5 104C63.9893 104 63.5714 103.582 63.5714 103.071V98.4286H58.9286C58.4179 98.4286 58 98.0107 58 97.5C58 96.9893 58.4179 96.5714 58.9286 96.5714H63.5714V91.9286C63.5714 91.4179 63.9893 91 64.5 91C65.0107 91 65.4286 91.4179 65.4286 91.9286V96.5714H70.0714C70.5821 96.5714 71 96.9893 71 97.5C71 98.0107 70.5821 98.4286 70.0714 98.4286Z" fill="black"/>
</svg>
