<svg width="25" height="25" viewBox="0 0 25 25" fill="none" xmlns="http://www.w3.org/2000/svg">
<g clip-path="url(#clip0_2508_7545)">
<path d="M23.8636 0H1.13636C0.508788 0 0 0.508788 0 1.13636V23.8636C0 24.4912 0.508788 25 1.13636 25H23.8636C24.4912 25 25 24.4912 25 23.8636V1.13636C25 0.508788 24.4912 0 23.8636 0ZM22.7273 22.7273H2.27273V2.27273H22.7273V22.7273Z" fill="#007AB6"/>
<path d="M5.68324 20.454H19.3196C19.9472 20.454 20.456 19.9452 20.456 19.3176V5.68129C20.456 5.05371 19.9472 4.54492 19.3196 4.54492H12.5014C11.8738 4.54492 11.3651 5.05371 11.3651 5.68129V9.28583C10.0424 9.75492 9.09233 11.018 9.09233 12.4995C9.09233 14.3792 10.6216 15.9086 12.5014 15.9086C14.3813 15.9086 15.9105 14.3792 15.9105 12.4995C15.9105 11.018 14.9604 9.755 13.6378 9.28583V6.81765H18.1832V18.1813H6.8196V6.81765H7.19839C7.82597 6.81765 8.33475 6.30886 8.33475 5.68129C8.33475 5.05371 7.82597 4.54492 7.19839 4.54492H5.68324C5.05566 4.54492 4.54688 5.05371 4.54688 5.68129V19.3176C4.54688 19.9452 5.05566 20.454 5.68324 20.454ZM12.5014 13.6358C11.8748 13.6358 11.3651 13.1261 11.3651 12.4995C11.3651 11.8729 11.8748 11.3631 12.5014 11.3631C13.128 11.3631 13.6378 11.8729 13.6378 12.4995C13.6378 13.1261 13.128 13.6358 12.5014 13.6358Z" fill="#007AB6"/>
</g>
<defs>
<clipPath id="clip0_2508_7545">
<rect width="25" height="25" fill="white"/>
</clipPath>
</defs>
</svg>
