<svg width="136" height="27" viewBox="0 0 136 27" fill="none" xmlns="http://www.w3.org/2000/svg">
<g clip-path="url(#clip0_2528_7539)">
<rect width="136" height="27" fill="white"/>
<path d="M15.3409 8.70454C15.2652 7.87121 14.928 7.22348 14.3295 6.76136C13.7386 6.29167 12.8939 6.05682 11.7955 6.05682C11.0682 6.05682 10.4621 6.15151 9.97727 6.34091C9.49242 6.5303 9.12879 6.79167 8.88636 7.125C8.64394 7.45076 8.51894 7.82576 8.51136 8.25C8.49621 8.59848 8.56439 8.9053 8.71591 9.17045C8.875 9.43561 9.10227 9.67045 9.39773 9.875C9.70076 10.072 10.0644 10.2462 10.4886 10.3977C10.9129 10.5492 11.3902 10.6818 11.9205 10.7955L13.9205 11.25C15.072 11.5 16.0871 11.8333 16.9659 12.25C17.8523 12.6667 18.5947 13.1629 19.1932 13.7386C19.7992 14.3144 20.2576 14.9773 20.5682 15.7273C20.8788 16.4773 21.0379 17.3182 21.0455 18.25C21.0379 19.7197 20.6667 20.9811 19.9318 22.0341C19.197 23.0871 18.1402 23.8939 16.7614 24.4545C15.3902 25.0152 13.7348 25.2955 11.7955 25.2955C9.84848 25.2955 8.15152 25.0038 6.70455 24.4205C5.25758 23.8371 4.13258 22.9508 3.32955 21.7614C2.52652 20.572 2.11364 19.0682 2.09091 17.25H7.47727C7.52273 18 7.72349 18.625 8.07955 19.125C8.43561 19.625 8.92424 20.0038 9.54545 20.2614C10.1742 20.5189 10.9015 20.6477 11.7273 20.6477C12.4848 20.6477 13.1288 20.5455 13.6591 20.3409C14.197 20.1364 14.6098 19.8523 14.8977 19.4886C15.1856 19.125 15.3333 18.7083 15.3409 18.2386C15.3333 17.7992 15.197 17.4242 14.9318 17.1136C14.6667 16.7955 14.2576 16.5227 13.7045 16.2955C13.1591 16.0606 12.4621 15.8447 11.6136 15.6477L9.18182 15.0795C7.16667 14.6174 5.57955 13.8712 4.42045 12.8409C3.26136 11.803 2.68561 10.4015 2.69318 8.63636C2.68561 7.19697 3.07197 5.93561 3.85227 4.85227C4.63258 3.76894 5.71212 2.92424 7.09091 2.31818C8.4697 1.71212 10.0417 1.40909 11.8068 1.40909C13.6098 1.40909 15.1742 1.71591 16.5 2.32954C17.8333 2.93561 18.8674 3.78788 19.6023 4.88636C20.3371 5.98485 20.7121 7.25757 20.7273 8.70454H15.3409ZM23.125 6.29545V1.72727H42.7955V6.29545H35.7386V25H30.1932V6.29545H23.125ZM45.5426 25V1.72727H51.1676V11.5682H51.4744L59.1676 1.72727H65.7926L57.5426 12.1136L65.9403 25H59.2131L53.4176 15.8523L51.1676 18.6932V25H45.5426ZM88.6023 13.3636C88.6023 15.9242 88.1098 18.0947 87.125 19.875C86.1402 21.6553 84.8068 23.0076 83.125 23.9318C81.4508 24.8561 79.572 25.3182 77.4886 25.3182C75.3977 25.3182 73.5152 24.8523 71.8409 23.9205C70.1667 22.9886 68.8371 21.6364 67.8523 19.8636C66.875 18.0833 66.3864 15.9167 66.3864 13.3636C66.3864 10.803 66.875 8.63258 67.8523 6.85227C68.8371 5.07197 70.1667 3.7197 71.8409 2.79545C73.5152 1.87121 75.3977 1.40909 77.4886 1.40909C79.572 1.40909 81.4508 1.87121 83.125 2.79545C84.8068 3.7197 86.1402 5.07197 87.125 6.85227C88.1098 8.63258 88.6023 10.803 88.6023 13.3636ZM82.8523 13.3636C82.8523 11.8485 82.6364 10.5682 82.2045 9.52273C81.7803 8.47727 81.1667 7.6856 80.3636 7.14773C79.5682 6.60985 78.6098 6.34091 77.4886 6.34091C76.375 6.34091 75.4167 6.60985 74.6136 7.14773C73.8106 7.6856 73.1932 8.47727 72.7614 9.52273C72.3371 10.5682 72.125 11.8485 72.125 13.3636C72.125 14.8788 72.3371 16.1591 72.7614 17.2045C73.1932 18.25 73.8106 19.0417 74.6136 19.5795C75.4167 20.1174 76.375 20.3864 77.4886 20.3864C78.6098 20.3864 79.5682 20.1174 80.3636 19.5795C81.1667 19.0417 81.7803 18.25 82.2045 17.2045C82.6364 16.1591 82.8523 14.8788 82.8523 13.3636ZM105.966 1.72727H111.58V16.7386C111.58 18.4735 111.167 19.9848 110.341 21.2727C109.515 22.553 108.364 23.5455 106.886 24.25C105.409 24.947 103.693 25.2955 101.739 25.2955C99.7614 25.2955 98.0341 24.947 96.5568 24.25C95.0795 23.5455 93.9318 22.553 93.1136 21.2727C92.2955 19.9848 91.8864 18.4735 91.8864 16.7386V1.72727H97.5114V16.25C97.5114 17.053 97.6856 17.7689 98.0341 18.3977C98.3902 19.0265 98.8864 19.5189 99.5227 19.875C100.159 20.2311 100.898 20.4091 101.739 20.4091C102.58 20.4091 103.314 20.2311 103.943 19.875C104.58 19.5189 105.076 19.0265 105.432 18.3977C105.788 17.7689 105.966 17.053 105.966 16.25V1.72727ZM114.344 6.29545V1.72727H134.014V6.29545H126.957V25H121.412V6.29545H114.344Z" fill="#010101"/>
</g>
<defs>
<clipPath id="clip0_2528_7539">
<rect width="136" height="27" fill="white"/>
</clipPath>
</defs>
</svg>
