<svg width="242" height="308" viewBox="0 0 242 308" fill="none" xmlns="http://www.w3.org/2000/svg">
<g clip-path="url(#clip0_2557_7567)">
<path d="M36.4904 217.727H39.8995L41.3484 219.577L43.2489 221.759L46.1722 225.364H42.354L40.3086 222.918L39.0984 221.179L36.4904 217.727ZM46.2915 215.273C46.2915 217.193 45.9222 218.821 45.1836 220.156C44.445 221.491 43.445 222.506 42.1836 223.199C40.9279 223.892 39.5188 224.239 37.9563 224.239C36.3881 224.239 34.9762 223.889 33.7205 223.19C32.4648 222.491 31.4677 221.477 30.729 220.148C29.9961 218.812 29.6296 217.187 29.6296 215.273C29.6296 213.352 29.9961 211.724 30.729 210.389C31.4677 209.054 32.4648 208.04 33.7205 207.347C34.9762 206.653 36.3881 206.307 37.9563 206.307C39.5188 206.307 40.9279 206.653 42.1836 207.347C43.445 208.04 44.445 209.054 45.1836 210.389C45.9222 211.724 46.2915 213.352 46.2915 215.273ZM41.979 215.273C41.979 214.136 41.8171 213.176 41.4933 212.392C41.1751 211.608 40.7148 211.014 40.1126 210.611C39.516 210.207 38.7972 210.006 37.9563 210.006C37.1211 210.006 36.4023 210.207 35.8001 210.611C35.1978 211.014 34.7347 211.608 34.4109 212.392C34.0927 213.176 33.9336 214.136 33.9336 215.273C33.9336 216.409 34.0927 217.369 34.4109 218.153C34.7347 218.937 35.1978 219.531 35.8001 219.935C36.4023 220.338 37.1211 220.54 37.9563 220.54C38.7972 220.54 39.516 220.338 40.1126 219.935C40.7148 219.531 41.1751 218.937 41.4933 218.153C41.8171 217.369 41.979 216.409 41.979 215.273ZM48.7781 224V206.545H55.9883C57.2951 206.545 58.4229 206.781 59.3718 207.253C60.3264 207.719 61.0621 208.389 61.5792 209.264C62.0962 210.134 62.3548 211.165 62.3548 212.358C62.3548 213.568 62.0906 214.597 61.5621 215.443C61.0337 216.284 60.2837 216.926 59.3121 217.369C58.3406 217.807 57.19 218.026 55.8604 218.026H51.3008V214.702H55.0763C55.7127 214.702 56.244 214.619 56.6701 214.455C57.1019 214.284 57.4286 214.028 57.6502 213.688C57.8718 213.341 57.9826 212.898 57.9826 212.358C57.9826 211.818 57.8718 211.372 57.6502 211.02C57.4286 210.662 57.1019 210.395 56.6701 210.219C56.2383 210.037 55.707 209.946 55.0763 209.946H52.9968V224H48.7781ZM58.6048 216.023L62.9514 224H58.3491L54.0877 216.023H58.6048ZM80.5124 212.869H76.2511C76.1942 212.432 76.0778 212.037 75.9016 211.685C75.7255 211.332 75.4925 211.031 75.2028 210.781C74.913 210.531 74.5692 210.341 74.1715 210.21C73.7795 210.074 73.3448 210.006 72.8675 210.006C72.021 210.006 71.2908 210.213 70.6772 210.628C70.0692 211.043 69.6005 211.642 69.271 212.426C68.9471 213.21 68.7852 214.159 68.7852 215.273C68.7852 216.432 68.9499 217.403 69.2795 218.188C69.6147 218.966 70.0835 219.554 70.6857 219.952C71.2937 220.344 72.0124 220.54 72.842 220.54C73.3079 220.54 73.7312 220.48 74.1119 220.361C74.4982 220.241 74.8363 220.068 75.1261 219.841C75.4215 219.608 75.663 219.327 75.8505 218.997C76.0437 218.662 76.1772 218.284 76.2511 217.864L80.5124 217.889C80.4386 218.662 80.2141 219.423 79.8391 220.173C79.4698 220.923 78.9613 221.608 78.3136 222.227C77.6658 222.841 76.8761 223.33 75.9442 223.693C75.0181 224.057 73.9556 224.239 72.7567 224.239C71.1772 224.239 69.7624 223.892 68.5124 223.199C67.2681 222.5 66.2852 221.483 65.5636 220.148C64.842 218.812 64.4812 217.187 64.4812 215.273C64.4812 213.352 64.8477 211.724 65.5806 210.389C66.3136 209.054 67.305 208.04 68.555 207.347C69.805 206.653 71.2056 206.307 72.7567 206.307C73.8136 206.307 74.7908 206.455 75.6886 206.75C76.5863 207.04 77.3761 207.466 78.0579 208.028C78.7397 208.585 79.2937 209.27 79.7198 210.082C80.146 210.895 80.4102 211.824 80.5124 212.869ZM99.4009 215.273C99.4009 217.193 99.0316 218.821 98.293 220.156C97.5543 221.491 96.5543 222.506 95.293 223.199C94.0373 223.892 92.6282 224.239 91.0657 224.239C89.4975 224.239 88.0856 223.889 86.8299 223.19C85.5742 222.491 84.5771 221.477 83.8384 220.148C83.1055 218.812 82.739 217.187 82.739 215.273C82.739 213.352 83.1055 211.724 83.8384 210.389C84.5771 209.054 85.5742 208.04 86.8299 207.347C88.0856 206.653 89.4975 206.307 91.0657 206.307C92.6282 206.307 94.0373 206.653 95.293 207.347C96.5543 208.04 97.5543 209.054 98.293 210.389C99.0316 211.724 99.4009 213.352 99.4009 215.273ZM95.0884 215.273C95.0884 214.136 94.9265 213.176 94.6026 212.392C94.2844 211.608 93.8242 211.014 93.2219 210.611C92.6254 210.207 91.9066 210.006 91.0657 210.006C90.2305 210.006 89.5117 210.207 88.9094 210.611C88.3072 211.014 87.8441 211.608 87.5202 212.392C87.2021 213.176 87.043 214.136 87.043 215.273C87.043 216.409 87.2021 217.369 87.5202 218.153C87.8441 218.937 88.3072 219.531 88.9094 219.935C89.5117 220.338 90.2305 220.54 91.0657 220.54C91.9066 220.54 92.6254 220.338 93.2219 219.935C93.8242 219.531 94.2844 218.937 94.6026 218.153C94.9265 217.369 95.0884 216.409 95.0884 215.273ZM108.316 224H101.864V206.545H108.307C110.086 206.545 111.617 206.895 112.901 207.594C114.191 208.287 115.185 209.287 115.884 210.594C116.583 211.895 116.932 213.452 116.932 215.264C116.932 217.082 116.583 218.645 115.884 219.952C115.191 221.259 114.199 222.261 112.909 222.96C111.62 223.653 110.088 224 108.316 224ZM106.083 220.403H108.154C109.131 220.403 109.958 220.239 110.634 219.909C111.316 219.574 111.83 219.031 112.176 218.281C112.529 217.526 112.705 216.52 112.705 215.264C112.705 214.009 112.529 213.009 112.176 212.264C111.824 211.514 111.304 210.974 110.617 210.645C109.935 210.31 109.094 210.142 108.094 210.142H106.083V220.403ZM119.395 224V206.545H131.566V209.972H123.614V213.551H130.944V216.986H123.614V220.574H131.566V224H119.395ZM139.364 224V206.545H146.574C147.881 206.545 149.009 206.781 149.958 207.253C150.912 207.719 151.648 208.389 152.165 209.264C152.682 210.134 152.941 211.165 152.941 212.358C152.941 213.568 152.676 214.597 152.148 215.443C151.62 216.284 150.87 216.926 149.898 217.369C148.926 217.807 147.776 218.026 146.446 218.026H141.887V214.702H145.662C146.299 214.702 146.83 214.619 147.256 214.455C147.688 214.284 148.015 214.028 148.236 213.688C148.458 213.341 148.569 212.898 148.569 212.358C148.569 211.818 148.458 211.372 148.236 211.02C148.015 210.662 147.688 210.395 147.256 210.219C146.824 210.037 146.293 209.946 145.662 209.946H143.583V224H139.364ZM149.191 216.023L153.537 224H148.935L144.674 216.023H149.191ZM155.255 224V206.545H167.425V209.972H159.473V213.551H166.803V216.986H159.473V220.574H167.425V224H155.255ZM173.843 224H169.309L175.198 206.545H180.814L186.703 224H182.169L178.07 210.943H177.934L173.843 224ZM173.238 217.131H182.715V220.335H173.238V217.131ZM195.034 224H188.583V206.545H195.026C196.804 206.545 198.336 206.895 199.62 207.594C200.909 208.287 201.904 209.287 202.603 210.594C203.301 211.895 203.651 213.452 203.651 215.264C203.651 217.082 203.301 218.645 202.603 219.952C201.909 221.259 200.918 222.261 199.628 222.96C198.338 223.653 196.807 224 195.034 224ZM192.801 220.403H194.873C195.85 220.403 196.676 220.239 197.353 219.909C198.034 219.574 198.549 219.031 198.895 218.281C199.248 217.526 199.424 216.52 199.424 215.264C199.424 214.009 199.248 213.009 198.895 212.264C198.543 211.514 198.023 210.974 197.336 210.645C196.654 210.31 195.813 210.142 194.813 210.142H192.801V220.403ZM204.096 206.545H208.809L212.5 213.849H212.653L216.343 206.545H221.056L214.673 218.17V224H210.48V218.17L204.096 206.545ZM59.3249 253V235.545H71.2397V238.972H63.5437V242.551H70.4812V245.986H63.5437V253H59.3249ZM89.8384 244.273C89.8384 246.193 89.4691 247.821 88.7305 249.156C87.9918 250.491 86.9918 251.506 85.7305 252.199C84.4748 252.892 83.0657 253.239 81.5032 253.239C79.935 253.239 78.5231 252.889 77.2674 252.19C76.0117 251.491 75.0146 250.477 74.2759 249.148C73.543 247.812 73.1765 246.187 73.1765 244.273C73.1765 242.352 73.543 240.724 74.2759 239.389C75.0146 238.054 76.0117 237.04 77.2674 236.347C78.5231 235.653 79.935 235.307 81.5032 235.307C83.0657 235.307 84.4748 235.653 85.7305 236.347C86.9918 237.04 87.9918 238.054 88.7305 239.389C89.4691 240.724 89.8384 242.352 89.8384 244.273ZM85.5259 244.273C85.5259 243.136 85.364 242.176 85.0401 241.392C84.7219 240.608 84.2617 240.014 83.6594 239.611C83.0629 239.207 82.3441 239.006 81.5032 239.006C80.668 239.006 79.9492 239.207 79.3469 239.611C78.7447 240.014 78.2816 240.608 77.9577 241.392C77.6396 242.176 77.4805 243.136 77.4805 244.273C77.4805 245.409 77.6396 246.369 77.9577 247.153C78.2816 247.937 78.7447 248.531 79.3469 248.935C79.9492 249.338 80.668 249.54 81.5032 249.54C82.3441 249.54 83.0629 249.338 83.6594 248.935C84.2617 248.531 84.7219 247.937 85.0401 247.153C85.364 246.369 85.5259 245.409 85.5259 244.273ZM92.3015 253V235.545H99.5117C100.819 235.545 101.946 235.781 102.895 236.253C103.85 236.719 104.586 237.389 105.103 238.264C105.62 239.134 105.878 240.165 105.878 241.358C105.878 242.568 105.614 243.597 105.086 244.443C104.557 245.284 103.807 245.926 102.836 246.369C101.864 246.807 100.713 247.026 99.3839 247.026H94.8242V243.702H98.5998C99.2362 243.702 99.7674 243.619 100.194 243.455C100.625 243.284 100.952 243.028 101.174 242.688C101.395 242.341 101.506 241.898 101.506 241.358C101.506 240.818 101.395 240.372 101.174 240.02C100.952 239.662 100.625 239.395 100.194 239.219C99.7617 239.037 99.2305 238.946 98.5998 238.946H96.5202V253H92.3015ZM102.128 245.023L106.475 253H101.873L97.6112 245.023H102.128ZM122.783 240.778C122.726 240.153 122.473 239.668 122.025 239.321C121.581 238.969 120.948 238.793 120.124 238.793C119.578 238.793 119.124 238.864 118.76 239.006C118.397 239.148 118.124 239.344 117.942 239.594C117.76 239.838 117.667 240.119 117.661 240.438C117.65 240.699 117.701 240.929 117.814 241.128C117.934 241.327 118.104 241.503 118.326 241.656C118.553 241.804 118.826 241.935 119.144 242.048C119.462 242.162 119.82 242.261 120.218 242.347L121.718 242.688C122.581 242.875 123.343 243.125 124.002 243.438C124.667 243.75 125.223 244.122 125.672 244.554C126.127 244.986 126.471 245.483 126.703 246.045C126.936 246.608 127.056 247.239 127.061 247.938C127.056 249.04 126.777 249.986 126.226 250.776C125.675 251.565 124.882 252.17 123.848 252.591C122.82 253.011 121.578 253.222 120.124 253.222C118.664 253.222 117.391 253.003 116.306 252.565C115.221 252.128 114.377 251.463 113.775 250.571C113.172 249.679 112.863 248.551 112.846 247.188H116.885C116.919 247.75 117.07 248.219 117.337 248.594C117.604 248.969 117.971 249.253 118.436 249.446C118.908 249.639 119.453 249.736 120.073 249.736C120.641 249.736 121.124 249.659 121.522 249.506C121.925 249.352 122.235 249.139 122.451 248.866C122.667 248.594 122.777 248.281 122.783 247.929C122.777 247.599 122.675 247.318 122.476 247.085C122.277 246.847 121.971 246.642 121.556 246.472C121.147 246.295 120.624 246.134 119.988 245.986L118.164 245.56C116.652 245.213 115.462 244.653 114.593 243.881C113.723 243.102 113.292 242.051 113.297 240.727C113.292 239.648 113.581 238.702 114.167 237.889C114.752 237.077 115.561 236.443 116.596 235.989C117.63 235.534 118.809 235.307 120.132 235.307C121.485 235.307 122.658 235.537 123.652 235.997C124.652 236.452 125.428 237.091 125.979 237.915C126.53 238.739 126.811 239.693 126.823 240.778H122.783ZM129.192 253V235.545H141.363V238.972H133.411V242.551H140.74V245.986H133.411V249.574H141.363V253H129.192ZM143.434 238.972V235.545H158.186V238.972H152.894V253H148.735V238.972H143.434ZM170.806 235.545H175.017V246.804C175.017 248.105 174.707 249.239 174.088 250.205C173.468 251.165 172.605 251.909 171.497 252.438C170.389 252.96 169.102 253.222 167.636 253.222C166.153 253.222 164.858 252.96 163.75 252.438C162.642 251.909 161.781 251.165 161.167 250.205C160.554 249.239 160.247 248.105 160.247 246.804V235.545H164.466V246.438C164.466 247.04 164.596 247.577 164.858 248.048C165.125 248.52 165.497 248.889 165.974 249.156C166.451 249.423 167.005 249.557 167.636 249.557C168.267 249.557 168.818 249.423 169.289 249.156C169.767 248.889 170.139 248.52 170.406 248.048C170.673 247.577 170.806 247.04 170.806 246.438V235.545ZM177.661 253V235.545H184.871C186.178 235.545 187.306 235.801 188.255 236.312C189.209 236.818 189.945 237.526 190.462 238.435C190.979 239.338 191.238 240.389 191.238 241.588C191.238 242.793 190.973 243.847 190.445 244.75C189.922 245.648 189.175 246.344 188.203 246.838C187.232 247.332 186.078 247.58 184.743 247.58H180.294V244.256H183.959C184.596 244.256 185.127 244.145 185.553 243.923C185.985 243.702 186.311 243.392 186.533 242.994C186.755 242.591 186.865 242.122 186.865 241.588C186.865 241.048 186.755 240.582 186.533 240.19C186.311 239.793 185.985 239.486 185.553 239.27C185.121 239.054 184.59 238.946 183.959 238.946H181.88V253H177.661Z" fill="#007AB6"/>
<path d="M101 41.4V69H73.4V41.4H101ZM114.8 27.6H59.6V82.8H114.8V27.6ZM101 115V142.6H73.4V115H101ZM114.8 101.2H59.6V156.4H114.8V101.2ZM174.6 41.4V69H147V41.4H174.6ZM188.4 27.6H133.2V82.8H188.4V27.6ZM133.2 101.2H147V115H133.2V101.2ZM147 115H160.8V128.8H147V115ZM160.8 101.2H174.6V115H160.8V101.2ZM133.2 128.8H147V142.6H133.2V128.8ZM147 142.6H160.8V156.4H147V142.6ZM160.8 128.8H174.6V142.6H160.8V128.8ZM174.6 115H188.4V128.8H174.6V115ZM174.6 142.6H188.4V156.4H174.6V142.6ZM216 46H197.6V18.4H170V0H216V46ZM216 184V138H197.6V165.6H170V184H216ZM32 184H78V165.6H50.4V138H32V184ZM32 0V46H50.4V18.4H78V0H32Z" fill="#007AB6"/>
<path d="M139.17 273.852C139.133 273.436 138.964 273.112 138.665 272.881C138.369 272.646 137.947 272.528 137.398 272.528C137.034 272.528 136.731 272.576 136.489 272.67C136.246 272.765 136.064 272.896 135.943 273.062C135.822 273.225 135.759 273.413 135.756 273.625C135.748 273.799 135.782 273.953 135.858 274.085C135.938 274.218 136.051 274.335 136.199 274.438C136.35 274.536 136.532 274.623 136.744 274.699C136.956 274.775 137.195 274.841 137.46 274.898L138.46 275.125C139.036 275.25 139.544 275.417 139.983 275.625C140.426 275.833 140.797 276.081 141.097 276.369C141.4 276.657 141.629 276.989 141.784 277.364C141.939 277.739 142.019 278.159 142.023 278.625C142.019 279.36 141.833 279.991 141.466 280.517C141.098 281.044 140.57 281.447 139.881 281.727C139.195 282.008 138.367 282.148 137.398 282.148C136.424 282.148 135.576 282.002 134.852 281.71C134.129 281.419 133.566 280.975 133.165 280.381C132.763 279.786 132.557 279.034 132.545 278.125H135.239C135.261 278.5 135.362 278.812 135.54 279.062C135.718 279.312 135.962 279.502 136.273 279.631C136.587 279.759 136.951 279.824 137.364 279.824C137.742 279.824 138.064 279.773 138.33 279.67C138.598 279.568 138.805 279.426 138.949 279.244C139.093 279.062 139.167 278.854 139.17 278.619C139.167 278.4 139.098 278.212 138.966 278.057C138.833 277.898 138.629 277.761 138.352 277.648C138.08 277.53 137.731 277.422 137.307 277.324L136.091 277.04C135.083 276.809 134.29 276.436 133.71 275.92C133.131 275.402 132.843 274.701 132.847 273.818C132.843 273.098 133.036 272.468 133.426 271.926C133.816 271.384 134.356 270.962 135.045 270.659C135.735 270.356 136.521 270.205 137.403 270.205C138.305 270.205 139.087 270.358 139.75 270.665C140.417 270.968 140.934 271.394 141.301 271.943C141.669 272.492 141.856 273.129 141.864 273.852H139.17ZM143.062 272.648V270.364H152.898V272.648H149.369V282H146.597V272.648H143.062ZM154.271 282V270.364H157.084V275.284H157.237L161.084 270.364H164.396L160.271 275.557L164.47 282H161.107L158.209 277.426L157.084 278.847V282H154.271ZM175.801 276.182C175.801 277.462 175.555 278.547 175.062 279.438C174.57 280.328 173.903 281.004 173.062 281.466C172.225 281.928 171.286 282.159 170.244 282.159C169.199 282.159 168.258 281.926 167.42 281.46C166.583 280.994 165.919 280.318 165.426 279.432C164.938 278.542 164.693 277.458 164.693 276.182C164.693 274.902 164.938 273.816 165.426 272.926C165.919 272.036 166.583 271.36 167.42 270.898C168.258 270.436 169.199 270.205 170.244 270.205C171.286 270.205 172.225 270.436 173.062 270.898C173.903 271.36 174.57 272.036 175.062 272.926C175.555 273.816 175.801 274.902 175.801 276.182ZM172.926 276.182C172.926 275.424 172.818 274.784 172.602 274.261C172.39 273.739 172.083 273.343 171.682 273.074C171.284 272.805 170.805 272.67 170.244 272.67C169.688 272.67 169.208 272.805 168.807 273.074C168.405 273.343 168.097 273.739 167.881 274.261C167.669 274.784 167.562 275.424 167.562 276.182C167.562 276.939 167.669 277.58 167.881 278.102C168.097 278.625 168.405 279.021 168.807 279.29C169.208 279.559 169.688 279.693 170.244 279.693C170.805 279.693 171.284 279.559 171.682 279.29C172.083 279.021 172.39 278.625 172.602 278.102C172.818 277.58 172.926 276.939 172.926 276.182ZM184.483 270.364H187.29V277.869C187.29 278.737 187.083 279.492 186.67 280.136C186.258 280.777 185.682 281.273 184.943 281.625C184.205 281.973 183.347 282.148 182.369 282.148C181.381 282.148 180.517 281.973 179.778 281.625C179.04 281.273 178.466 280.777 178.057 280.136C177.648 279.492 177.443 278.737 177.443 277.869V270.364H180.256V277.625C180.256 278.027 180.343 278.384 180.517 278.699C180.695 279.013 180.943 279.259 181.261 279.438C181.58 279.616 181.949 279.705 182.369 279.705C182.79 279.705 183.157 279.616 183.472 279.438C183.79 279.259 184.038 279.013 184.216 278.699C184.394 278.384 184.483 278.027 184.483 277.625V270.364ZM188.672 272.648V270.364H198.507V272.648H194.979V282H192.206V272.648H188.672Z" fill="#010101"/>
<path d="M54.0387 281V271.545H57.4087C58.1443 271.545 58.7537 271.679 59.2369 271.947C59.7201 272.215 60.0817 272.581 60.3217 273.046C60.5618 273.507 60.6818 274.028 60.6818 274.606C60.6818 275.188 60.5603 275.711 60.3171 276.176C60.0771 276.637 59.7139 277.004 59.2276 277.275C58.7444 277.542 58.1366 277.676 57.4041 277.676H55.0866V276.467H57.2749C57.7396 276.467 58.1166 276.387 58.4059 276.227C58.6952 276.063 58.9076 275.842 59.043 275.562C59.1784 275.282 59.2461 274.963 59.2461 274.606C59.2461 274.249 59.1784 273.932 59.043 273.655C58.9076 273.378 58.6937 273.161 58.4013 273.004C58.112 272.847 57.7304 272.769 57.2564 272.769H55.4652V281H54.0387ZM65.1413 281.143C64.4766 281.143 63.8964 280.991 63.4009 280.686C62.9054 280.381 62.5207 279.955 62.2468 279.407C61.9729 278.859 61.8359 278.219 61.8359 277.487C61.8359 276.751 61.9729 276.108 62.2468 275.557C62.5207 275.006 62.9054 274.578 63.4009 274.274C63.8964 273.969 64.4766 273.817 65.1413 273.817C65.8061 273.817 66.3862 273.969 66.8817 274.274C67.3772 274.578 67.762 275.006 68.0359 275.557C68.3098 276.108 68.4467 276.751 68.4467 277.487C68.4467 278.219 68.3098 278.859 68.0359 279.407C67.762 279.955 67.3772 280.381 66.8817 280.686C66.3862 280.991 65.8061 281.143 65.1413 281.143ZM65.146 279.984C65.5768 279.984 65.9338 279.871 66.217 279.643C66.5001 279.415 66.7094 279.112 66.8448 278.733C66.9833 278.355 67.0526 277.938 67.0526 277.482C67.0526 277.03 66.9833 276.614 66.8448 276.236C66.7094 275.854 66.5001 275.548 66.217 275.317C65.9338 275.086 65.5768 274.971 65.146 274.971C64.712 274.971 64.3519 275.086 64.0657 275.317C63.7826 275.548 63.5717 275.854 63.4332 276.236C63.2978 276.614 63.2301 277.03 63.2301 277.482C63.2301 277.938 63.2978 278.355 63.4332 278.733C63.5717 279.112 63.7826 279.415 64.0657 279.643C64.3519 279.871 64.712 279.984 65.146 279.984ZM71.3089 281L69.2223 273.909H70.6488L72.0384 279.116H72.1076L73.5018 273.909H74.9283L76.3132 279.093H76.3825L77.7628 273.909H79.1893L77.1072 281H75.6992L74.2589 275.88H74.1527L72.7124 281H71.3089ZM83.3395 281.143C82.6409 281.143 82.0392 280.994 81.5344 280.695C81.0328 280.394 80.645 279.971 80.3711 279.426C80.1003 278.878 79.9648 278.236 79.9648 277.501C79.9648 276.774 80.1003 276.134 80.3711 275.58C80.645 275.026 81.0266 274.594 81.516 274.283C82.0084 273.972 82.5839 273.817 83.2425 273.817C83.6426 273.817 84.0304 273.883 84.4059 274.015C84.7814 274.148 85.1184 274.355 85.4169 274.638C85.7154 274.922 85.9509 275.289 86.1232 275.742C86.2956 276.191 86.3817 276.737 86.3817 277.381V277.87H80.745V276.836H85.0291C85.0291 276.473 84.9553 276.151 84.8075 275.871C84.6598 275.588 84.4521 275.365 84.1843 275.202C83.9196 275.039 83.6088 274.957 83.2518 274.957C82.864 274.957 82.5254 275.052 82.2362 275.243C81.9499 275.431 81.7283 275.677 81.5714 275.982C81.4175 276.283 81.3406 276.611 81.3406 276.965V277.773C81.3406 278.247 81.4237 278.65 81.5898 278.983C81.7591 279.315 81.9946 279.569 82.2962 279.744C82.5978 279.917 82.9502 280.003 83.3533 280.003C83.6149 280.003 83.8535 279.966 84.0689 279.892C84.2843 279.815 84.4705 279.701 84.6275 279.55C84.7844 279.4 84.9045 279.213 84.9876 278.992L86.294 279.227C86.1894 279.612 86.0017 279.949 85.7308 280.238C85.4631 280.525 85.1261 280.748 84.7198 280.908C84.3166 281.065 83.8565 281.143 83.3395 281.143ZM87.9133 281V273.909H89.2474V275.036H89.3213C89.4506 274.654 89.6783 274.354 90.0045 274.135C90.3338 273.914 90.7062 273.803 91.1217 273.803C91.2079 273.803 91.3095 273.806 91.4264 273.812C91.5464 273.818 91.6403 273.826 91.708 273.835V275.156C91.6526 275.14 91.5541 275.123 91.4126 275.105C91.271 275.083 91.1294 275.072 90.9878 275.072C90.6616 275.072 90.3708 275.142 90.1153 275.28C89.863 275.416 89.6629 275.605 89.5152 275.848C89.3675 276.088 89.2936 276.362 89.2936 276.67V281H87.9133ZM95.7047 281.143C95.0061 281.143 94.4044 280.994 93.8997 280.695C93.398 280.394 93.0102 279.971 92.7363 279.426C92.4655 278.878 92.3301 278.236 92.3301 277.501C92.3301 276.774 92.4655 276.134 92.7363 275.58C93.0102 275.026 93.3919 274.594 93.8812 274.283C94.3736 273.972 94.9492 273.817 95.6078 273.817C96.0079 273.817 96.3957 273.883 96.7711 274.015C97.1466 274.148 97.4836 274.355 97.7821 274.638C98.0807 274.922 98.3161 275.289 98.4885 275.742C98.6608 276.191 98.747 276.737 98.747 277.381V277.87H93.1103V276.836H97.3944C97.3944 276.473 97.3205 276.151 97.1728 275.871C97.025 275.588 96.8173 275.365 96.5495 275.202C96.2849 275.039 95.974 274.957 95.617 274.957C95.2292 274.957 94.8907 275.052 94.6014 275.243C94.3152 275.431 94.0936 275.677 93.9366 275.982C93.7827 276.283 93.7058 276.611 93.7058 276.965V277.773C93.7058 278.247 93.7889 278.65 93.9551 278.983C94.1243 279.315 94.3598 279.569 94.6614 279.744C94.963 279.917 95.3154 280.003 95.7186 280.003C95.9802 280.003 96.2187 279.966 96.4341 279.892C96.6496 279.815 96.8358 279.701 96.9927 279.55C97.1497 279.4 97.2697 279.213 97.3528 278.992L98.6593 279.227C98.5546 279.612 98.3669 279.949 98.0961 280.238C97.8283 280.525 97.4913 280.748 97.085 280.908C96.6819 281.065 96.2218 281.143 95.7047 281.143ZM102.933 281.138C102.361 281.138 101.85 280.992 101.4 280.7C100.954 280.404 100.603 279.984 100.348 279.44C100.095 278.892 99.9692 278.235 99.9692 277.468C99.9692 276.702 100.097 276.047 100.352 275.502C100.611 274.957 100.965 274.54 101.414 274.251C101.863 273.961 102.373 273.817 102.942 273.817C103.382 273.817 103.736 273.891 104.004 274.038C104.275 274.183 104.484 274.352 104.632 274.546C104.783 274.74 104.9 274.911 104.983 275.059H105.066V271.545H106.446V281H105.098V279.897H104.983C104.9 280.047 104.78 280.22 104.623 280.414C104.469 280.608 104.256 280.777 103.986 280.922C103.715 281.066 103.364 281.138 102.933 281.138ZM103.238 279.961C103.635 279.961 103.97 279.857 104.244 279.647C104.521 279.435 104.73 279.141 104.872 278.766C105.017 278.39 105.089 277.953 105.089 277.455C105.089 276.962 105.018 276.531 104.877 276.162C104.735 275.793 104.527 275.505 104.253 275.299C103.979 275.092 103.641 274.989 103.238 274.989C102.822 274.989 102.476 275.097 102.199 275.312C101.922 275.528 101.713 275.822 101.571 276.194C101.433 276.567 101.363 276.987 101.363 277.455C101.363 277.929 101.434 278.355 101.576 278.733C101.717 279.112 101.927 279.412 102.204 279.634C102.484 279.852 102.828 279.961 103.238 279.961ZM111.967 281V271.545H115.43C116.101 271.545 116.656 271.656 117.096 271.878C117.536 272.096 117.866 272.393 118.084 272.769C118.303 273.141 118.412 273.561 118.412 274.029C118.412 274.423 118.34 274.755 118.195 275.026C118.05 275.294 117.857 275.509 117.613 275.673C117.373 275.833 117.109 275.95 116.819 276.023V276.116C117.133 276.131 117.439 276.233 117.738 276.42C118.04 276.605 118.289 276.868 118.486 277.21C118.683 277.551 118.781 277.967 118.781 278.456C118.781 278.94 118.667 279.373 118.44 279.758C118.215 280.14 117.867 280.443 117.396 280.668C116.926 280.889 116.324 281 115.591 281H111.967ZM113.394 279.777H115.453C116.136 279.777 116.625 279.644 116.921 279.38C117.216 279.115 117.364 278.784 117.364 278.387C117.364 278.089 117.289 277.815 117.138 277.565C116.987 277.316 116.772 277.118 116.492 276.97C116.215 276.822 115.885 276.748 115.504 276.748H113.394V279.777ZM113.394 275.636H115.305C115.625 275.636 115.913 275.574 116.168 275.451C116.427 275.328 116.632 275.156 116.782 274.934C116.936 274.709 117.013 274.445 117.013 274.14C117.013 273.749 116.876 273.421 116.602 273.157C116.328 272.892 115.908 272.76 115.342 272.76H113.394V275.636ZM121.235 283.659C121.029 283.659 120.841 283.642 120.672 283.608C120.503 283.578 120.376 283.544 120.293 283.507L120.626 282.376C120.878 282.443 121.103 282.473 121.3 282.463C121.497 282.454 121.67 282.38 121.821 282.242C121.975 282.103 122.111 281.877 122.228 281.563L122.398 281.092L119.804 273.909H121.281L123.077 279.412H123.151L124.947 273.909H126.429L123.506 281.946C123.371 282.316 123.199 282.628 122.989 282.884C122.78 283.142 122.531 283.336 122.241 283.465C121.952 283.594 121.617 283.659 121.235 283.659Z" fill="black"/>
</g>
<defs>
<clipPath id="clip0_2557_7567">
<rect width="242" height="308" fill="white"/>
</clipPath>
</defs>
</svg>
